<?xml version="1.0" encoding="UTF-8"?>
<svg version="1.1" xmlns="http://www.w3.org/2000/svg" width="107" height="90">
<path d="M0 0 C0.625 2.5625 0.625 2.5625 1 5 C1.94875 5.04125 2.8975 5.0825 3.875 5.125 C11.9610744 6.31990573 18.59047059 11.80107686 23.59375 17.984375 C26.65754038 22.37580788 28.49818944 26.51991615 28 32 C29.98 32.33 31.96 32.66 34 33 C34 35.31 34 37.62 34 40 C31 41 31 41 28 41 C28.103125 41.804375 28.20625 42.60875 28.3125 43.4375 C27.87314719 48.44612199 25.66632767 51.81783007 23 56 C22.443125 56.886875 21.88625 57.77375 21.3125 58.6875 C15.98082748 64.01917252 9.32720292 67.4071298 2 69 C1.67 68.67 1.34 68.34 1 68 C0.67 69.98 0.34 71.96 0 74 C-2.31 74 -4.62 74 -7 74 C-7.33 72.02 -7.66 70.04 -8 68 C-9.134375 67.95875 -10.26875 67.9175 -11.4375 67.875 C-19.00060317 66.91120632 -25.07419987 61.74665058 -29.71484375 55.9296875 C-32.88777155 51.16547373 -35 46.75264679 -35 41 C-36.65 40.67 -38.3 40.34 -40 40 C-40 37.69 -40 35.38 -40 33 C-37.525 32.505 -37.525 32.505 -35 32 C-34.95875 31.05125 -34.9175 30.1025 -34.875 29.125 C-33.77946114 21.623602 -28.80395081 14.8449793 -22.9296875 10.25 C-18.12356882 7.13672474 -13.76367998 5 -8 5 C-7.67 3.35 -7.34 1.7 -7 0 C-2.25 -1.125 -2.25 -1.125 0 0 Z M-7 8 C-7 9.65 -7 11.3 -7 13 C-8.2375 13.061875 -8.2375 13.061875 -9.5 13.125 C-16.25424036 14.81356009 -21.23612049 19.45696794 -25.03515625 25.1875 C-26.55597716 28.04442672 -27.29227116 30.84738972 -28 34 C-25.69 34.99 -23.38 35.98 -21 37 C-24.3 37.66 -27.6 38.32 -31 39 C-29.68 39.33 -28.36 39.66 -27 40 C-26.938125 41.2065625 -26.938125 41.2065625 -26.875 42.4375 C-25.35082586 48.64306613 -21.9364003 53.42667476 -17 57.4375 C-14.0450122 58.97655614 -11.20060409 60.08554169 -8 61 C-7.67 62.65 -7.34 64.3 -7 66 C-6.67 66 -6.34 66 -6 66 C-5.34 62.04 -4.68 58.08 -4 54 C-3.67 54 -3.34 54 -3 54 C-2.01 59.445 -2.01 59.445 -1 65 C-0.34 63.68 0.32 62.36 1 61 C2.953125 59.91015625 2.953125 59.91015625 5.25 59.0625 C12.53772932 56.04446763 16.52153266 52.08576681 20 45 C20.165 44.236875 20.33 43.47375 20.5 42.6875 C20.7475 41.8521875 20.7475 41.8521875 21 41 C22.32 40.34 23.64 39.68 25 39 C21.37 38.34 17.74 37.68 14 37 C14 36.67 14 36.34 14 36 C16.64 35.34 19.28 34.68 22 34 C18.08176995 24.96135567 14.15229435 18.144506 5.1875 13.5625 C2.89219751 12.87547948 2.89219751 12.87547948 0 13 C0 11.35 0 9.7 0 8 C-0.33 8 -0.66 8 -1 8 C-1.66 11.63 -2.32 15.26 -3 19 C-3.33 19 -3.66 19 -4 19 C-4.66 15.37 -5.32 11.74 -6 8 C-6.33 8 -6.66 8 -7 8 Z " fill="#BABDC2" transform="translate(59,8)"/>
<path d="M0 0 C6.9073366 0.14696461 11.25911319 3.06157624 16 8 C22 16.93852459 22 16.93852459 22 21 C23.32 20.67 24.64 20.34 26 20 C24.9515074 12.87025034 21.18697132 7.65806935 17 2 C22.15867043 4.12613315 24.52258405 8.16021838 27 13 C27.70826915 15.77367339 27.89518974 18.11771795 28 21 C29.98 21.33 31.96 21.66 34 22 C34 24.31 34 26.62 34 29 C31 30 31 30 28 30 C28.1546875 31.2065625 28.1546875 31.2065625 28.3125 32.4375 C27.87314719 37.44612199 25.66632767 40.81783007 23 45 C22.443125 45.886875 21.88625 46.77375 21.3125 47.6875 C15.98082748 53.01917252 9.32720292 56.4071298 2 58 C1.505 57.505 1.505 57.505 1 57 C0.67 58.98 0.34 60.96 0 63 C-2.31 63 -4.62 63 -7 63 C-7.33 61.02 -7.66 59.04 -8 57 C-9.134375 56.95875 -10.26875 56.9175 -11.4375 56.875 C-16.83871844 56.22878279 -20.86801616 53.40866063 -25 50 C-25.33 49.34 -25.66 48.68 -26 48 C-23.02189474 49.05109597 -20.68812599 50.21233975 -18.0625 52 C-15.06646729 53.95659279 -12.42319621 55.02194394 -9 56 C-8.67 54.35 -8.34 52.7 -8 51 C-8.87011719 50.76216797 -8.87011719 50.76216797 -9.7578125 50.51953125 C-17.94486222 48.07422432 -22.61655918 44.58672449 -27 37 C-27 36.34 -27 35.68 -27 35 C-26.34 35 -25.68 35 -25 35 C-23.921875 36.609375 -23.921875 36.609375 -22.75 38.75 C-18.97290395 45.01202766 -13.56578943 47.37368423 -7 50 C-6.01 47.36 -5.02 44.72 -4 42 C-3.34 42.33 -2.68 42.66 -2 43 C-1.26924352 45.3140622 -0.59861742 47.64828869 0 50 C9.81746237 45.80613258 15.53332675 41.81337104 19.875 32 C20.24625 31.01 20.6175 30.02 21 29 C18.36 28.01 15.72 27.02 13 26 C13.33 25.34 13.66 24.68 14 24 C16.3140622 23.26924352 18.64828869 22.59861742 21 22 C16.74410301 13.23877616 12.90137238 6.71560702 3.5625 3.125 C2.386875 2.75375 1.21125 2.3825 0 2 C0 1.34 0 0.68 0 0 Z " fill="#AFB4B9" transform="translate(59,19)"/>
<path d="M0 0 C2.23020876 1.59300626 2.90365519 2.74537442 3.875 5.3125 C4.04103779 8.88231246 2.76982962 10.95589306 1 14 C1.928125 14.556875 2.85625 15.11375 3.8125 15.6875 C6.96406649 17.97393059 8.45897672 19.4647113 10 23 C9.67 23.99 9.34 24.98 9 26 C0.75 26 -7.5 26 -16 26 C-16 20.48882452 -15.59686293 19.79668864 -12 16 C-9.75 14.1875 -9.75 14.1875 -8 13 C-8.66 12.01 -9.32 11.02 -10 10 C-10.55716353 3.75976845 -10.55716353 3.75976845 -8.625 1.125 C-5.35357067 -1.13983569 -3.82264285 -1.1188223 0 0 Z " fill="#BDC0C5" transform="translate(59,31)"/>
<path d="M0 0 C1.2065625 0.0309375 1.2065625 0.0309375 2.4375 0.0625 C2.52386719 0.71476562 2.61023437 1.36703125 2.69921875 2.0390625 C3.61404166 7.72942888 4.63129532 12.4501933 9.4375 16.0625 C13.34704473 18.27468046 17.3419343 20.22047523 21.4375 22.0625 C21.1075 23.7125 20.7775 25.3625 20.4375 27.0625 C15.00083422 26.01331888 11.37815009 24.69295483 7.02734375 21.26953125 C5.35192766 19.91252035 5.35192766 19.91252035 2.8125 18.8125 C-0.94387364 16.04464574 -2.95160152 12.40617268 -4.5625 8.0625 C-4.72258555 5.36105628 -4.33444101 3.7091549 -3.5625 1.0625 C-2.5625 0.0625 -2.5625 0.0625 0 0 Z " fill="#BDC1C5" transform="translate(29.5625,47.9375)"/>
<path d="M0 0 C6.9073366 0.14696461 11.25911319 3.06157624 16 8 C22 16.93852459 22 16.93852459 22 21 C23.32 20.67 24.64 20.34 26 20 C24.9515074 12.87025034 21.18697132 7.65806935 17 2 C22.15867043 4.12613315 24.52258405 8.16021838 27 13 C27.70826915 15.77367339 27.89518974 18.11771795 28 21 C29.98 21.33 31.96 21.66 34 22 C33.01 22.495 33.01 22.495 32 23 C31.67 23.66 31.34 24.32 31 25 C26.71 25 22.42 25 18 25 C18.99 24.01 19.98 23.02 21 22 C16.74410301 13.23877616 12.90137238 6.71560702 3.5625 3.125 C2.386875 2.75375 1.21125 2.3825 0 2 C0 1.34 0 0.68 0 0 Z " fill="#9DA3A9" transform="translate(59,19)"/>
<path d="M0 0 C2.1875 0.3125 2.1875 0.3125 4 1 C3.875 2.75 3.875 2.75 3 5 C-1.02479741 8.16234082 -5.20081455 10.31139771 -10 12 C-12.4375 11.6875 -12.4375 11.6875 -14 11 C-14 9.68 -14 8.36 -14 7 C-7.4368932 4.09708738 -7.4368932 4.09708738 -4.75 3.5 C-2.85135025 3.12163722 -2.85135025 3.12163722 -1.5 1.375 C-1.005 0.92125 -0.51 0.4675 0 0 Z " fill="#BDC0C3" transform="translate(74,63)"/>
<path d="M0 0 C2.8992226 0.46761655 3.86675182 0.86675182 6 3 C4.9171875 3.309375 4.9171875 3.309375 3.8125 3.625 C-0.36088187 5.66532003 -3.08584045 8.64863084 -4.7578125 12.94921875 C-5.23768351 14.61524981 -5.6274805 16.30672953 -6 18 C-8.31 17.67 -10.62 17.34 -13 17 C-12.67 15.35 -12.34 13.7 -12 12 C-11.34 12 -10.68 12 -10 12 C-9.95875 11.38125 -9.9175 10.7625 -9.875 10.125 C-9.58625 9.42375 -9.2975 8.7225 -9 8 C-7.5459375 7.5359375 -7.5459375 7.5359375 -6.0625 7.0625 C-2.79295544 6.32357688 -2.79295544 6.32357688 -1.6875 3.4375 C-1.460625 2.633125 -1.23375 1.82875 -1 1 C-0.67 0.67 -0.34 0.34 0 0 Z " fill="#BEC0C5" transform="translate(37,22)"/>
<path d="M0 0 C0.66 0 1.32 0 2 0 C2 1.98 2 3.96 2 6 C-1.73030129 7.24343376 -2.45985275 6.4405794 -6 5 C-8.0959986 4.72123482 -10.20262611 4.51411256 -12.3125 4.375 C-13.38113281 4.30023438 -14.44976562 4.22546875 -15.55078125 4.1484375 C-16.35902344 4.09945312 -17.16726562 4.05046875 -18 4 C-18 3.01 -18 2.02 -18 1 C-16.78441406 1.01160156 -15.56882812 1.02320313 -14.31640625 1.03515625 C-12.73177236 1.04453278 -11.14713682 1.05363313 -9.5625 1.0625 C-8.76005859 1.07087891 -7.95761719 1.07925781 -7.13085938 1.08789062 C-5.08704779 1.0965143 -3.04316098 1.0522815 -1 1 C-0.67 0.67 -0.34 0.34 0 0 Z " fill="#B8BEC4" transform="translate(91,42)"/>
<path d="M0 0 C3.375 -0.1875 3.375 -0.1875 7 0 C9 3 9 3 8.625 5.1875 C8.41875 5.785625 8.2125 6.38375 8 7 C7.34 6.01 6.68 5.02 6 4 C2.87968049 4.66293517 2.87968049 4.66293517 1.859375 7.07421875 C1.49328125 7.93660156 1.1271875 8.79898438 0.75 9.6875 C-3.2413127 17.98990415 -8.55468181 21.2182589 -17.05859375 24.3359375 C-17.69925781 24.55507812 -18.33992188 24.77421875 -19 25 C-18 22 -18 22 -16.109375 20.97265625 C-15.33078125 20.67230469 -14.5521875 20.37195313 -13.75 20.0625 C-5.50957468 16.58872324 -2.20768974 12.18807089 1.25 4.0625 C1.4975 3.381875 1.745 2.70125 2 2 C1.34 1.34 0.68 0.68 0 0 Z " fill="#A3A9AF" transform="translate(78,46)"/>
<path d="M0 0 C1.98 0 3.96 0 6 0 C4.68 0.33 3.36 0.66 2 1 C2 1.99 2 2.98 2 4 C-1.33333333 5.66666667 -4.66666667 7.33333333 -8 9 C-8 9.99 -8 10.98 -8 12 C-0.74 12.33 6.52 12.66 14 13 C14 13.33 14 13.66 14 14 C6.08 14 -1.84 14 -10 14 C-10 8.5024203 -9.71297608 7.71297608 -6 4 C-2.75 2.1875 -2.75 2.1875 0 1 C0 0.67 0 0.34 0 0 Z " fill="#AFB5BB" transform="translate(53,43)"/>
<path d="M0 0 C0.66 0.33 1.32 0.66 2 1 C1.60167969 1.4125 1.20335938 1.825 0.79296875 2.25 C-3.2002583 6.60271464 -5.22219999 10.37029996 -7 16 C-4.525 16.99 -4.525 16.99 -2 18 C-2 18.33 -2 18.66 -2 19 C-3.98 19 -5.96 19 -8 19 C-8.33 18.01 -8.66 17.02 -9 16 C-9.66 16.99 -10.32 17.98 -11 19 C-12.65 18.67 -14.3 18.34 -16 18 C-15.34 17.67 -14.68 17.34 -14 17 C-14.33 16.01 -14.66 15.02 -15 14 C-12.69 14.33 -10.38 14.66 -8 15 C-7.979375 14.01 -7.95875 13.02 -7.9375 12 C-7.25521622 6.7869255 -3.56868606 3.5873215 0 0 Z " fill="#A2AAAF" transform="translate(39,25)"/>
<path d="M0 0 C2 1 2 1 3.125 3.6875 C3.98889074 6.9579435 4.16013991 9.63706182 4 13 C1.69 13 -0.62 13 -3 13 C-2.01 8.71 -1.02 4.42 0 0 Z " fill="#B9BFC4" transform="translate(55,69)"/>
<path d="M0 0 C0.66 0.66 1.32 1.32 2 2 C4.65537372 2.56520003 7.29144713 2.73788198 10 3 C9 5 9 5 7.234375 5.62109375 C4.85849677 6.02399618 2.65820483 6.09791478 0.25 6.0625 C-0.54921875 6.05347656 -1.3484375 6.04445313 -2.171875 6.03515625 C-2.77515625 6.02355469 -3.3784375 6.01195312 -4 6 C-4 5.34 -4 4.68 -4 4 C-4.66 3.34 -5.32 2.68 -6 2 C-4.35 2 -2.7 2 -1 2 C-0.67 1.34 -0.34 0.68 0 0 Z " fill="#B6BBC0" transform="translate(29,41)"/>
<path d="M0 0 C0.66 0.33 1.32 0.66 2 1 C0.88321917 2.6721852 -0.24366352 4.33762803 -1.375 6 C-2.00148438 6.928125 -2.62796875 7.85625 -3.2734375 8.8125 C-3.84320313 9.534375 -4.41296875 10.25625 -5 11 C-5.66 11 -6.32 11 -7 11 C-7.33 12.32 -7.66 13.64 -8 15 C-8.66 14.67 -9.32 14.34 -10 14 C-9.09098826 12.4122595 -8.17242076 10.82998803 -7.25 9.25 C-6.73953125 8.36828125 -6.2290625 7.4865625 -5.703125 6.578125 C-4.02287452 4.03462657 -2.22580968 2.07097075 0 0 Z " fill="#AAAEB4" transform="translate(35,19)"/>
<path d="M0 0 C2.72274244 0.95295985 3.97489421 1.41788511 5.5 3.875 C5.1875 7.0625 5.1875 7.0625 4.5 9.875 C3 8.625 3 8.625 1.5 6.875 C1.5 5.555 1.5 4.235 1.5 2.875 C-0.81 2.875 -3.12 2.875 -5.5 2.875 C-3.68189192 0.48275253 -3.08240061 -0.15412003 0 0 Z " fill="#ABB4B8" transform="translate(56.5,30.125)"/>
<path d="M0 0 C5.28798182 0.41474367 8.11690718 1.35224614 12 5 C11.67 5.66 11.34 6.32 11 7 C10.45730469 6.72285156 9.91460937 6.44570313 9.35546875 6.16015625 C8.64003906 5.79792969 7.92460938 5.43570312 7.1875 5.0625 C6.47980469 4.70285156 5.77210937 4.34320312 5.04296875 3.97265625 C2.88189715 2.89269484 2.88189715 2.89269484 0 2 C0 1.34 0 0.68 0 0 Z " fill="#A7ACB2" transform="translate(59,19)"/>
<path d="M0 0 C1.65 0.33 3.3 0.66 5 1 C4.01 2.485 4.01 2.485 3 4 C3 4.66 3 5.32 3 6 C2.34 6 1.68 6 1 6 C0.34 5.34 -0.32 4.68 -1 4 C-0.625 1.875 -0.625 1.875 0 0 Z " fill="#C3C6CC" transform="translate(62,13)"/>
<path d="M0 0 C1.65 0 3.3 0 5 0 C4.67 1.32 4.34 2.64 4 4 C2.35 3.67 0.7 3.34 -1 3 C-0.67 2.01 -0.34 1.02 0 0 Z " fill="#B8B9BC" transform="translate(27,48)"/>
</svg>
