<?xml version="1.0" encoding="UTF-8"?>
<svg version="1.1" xmlns="http://www.w3.org/2000/svg" width="116" height="77">
<path d="M0 0 C1.76953125 1.45703125 1.76953125 1.45703125 3.5625 3.3125 C8.24319587 7.96505541 13.54220335 8.46698638 19.8046875 9.39453125 C23 10 23 10 25 12 C24.67028521 15.29714793 24.3773161 16.6226839 22 19 C19.37325147 19.2002454 16.87491598 19.2782249 14.25 19.25 C13.19425781 19.26160156 13.19425781 19.26160156 12.1171875 19.2734375 C7.70222524 19.257025 4.15942781 18.64807517 0 17 C0 17.66 0 18.32 0 19 C3.72875388 19.14560195 7.45677434 19.23417043 11.1875 19.3125 C12.24259766 19.35439453 13.29769531 19.39628906 14.38476562 19.43945312 C20.56299221 19.65952802 20.56299221 19.65952802 25.80078125 16.78515625 C26.52652344 15.86605469 27.25226563 14.94695313 28 14 C30.23472071 12.22266829 32.60677737 10.67957197 35 9.125 C35.60328125 8.70992187 36.2065625 8.29484375 36.828125 7.8671875 C39.72790277 5.97602808 41.42982791 4.95299113 44.9375 5.2421875 C47 6 47 6 47.8125 7.625 C48 10 48 10 46.09765625 12.765625 C42.57542364 16.80708594 38.17335155 19.37205038 33.625 22.125 C32.8 22.63675781 31.975 23.14851563 31.125 23.67578125 C28.76064618 25.13567591 26.383553 26.5717201 24 28 C23.33395752 28.40677979 22.66791504 28.81355957 21.98168945 29.23266602 C16.99130038 32.21038249 13.69096689 33.29984017 8 32 C4.9007151 30.57963807 1.91010706 29.10817453 -1.03930664 27.40307617 C-3.70183009 25.90783072 -5.45691942 24.9525221 -8.546875 25.22265625 C-9.35640625 25.47917969 -10.1659375 25.73570313 -11 26 C-12.99897128 26.33944795 -14.99875639 26.67421616 -17 27 C-18.1787322 24.60945893 -19.34302997 22.21354785 -20.5 19.8125 C-20.83386719 19.13896484 -21.16773438 18.46542969 -21.51171875 17.77148438 C-23.29700132 14.03696471 -24.46127195 11.24205451 -24 7 C-22.08588443 6.01585567 -20.1686033 5.03786651 -18.25 4.0625 C-17.18265625 3.51722656 -16.1153125 2.97195312 -15.015625 2.41015625 C-10.26743985 0.18982615 -5.2358844 -1.20976996 0 0 Z " fill="#BDC0C5" transform="translate(48,41)"/>
<path d="M0 0 C2.31 0 4.62 0 7 0 C7.99 1.98 8.98 3.96 10 6 C10.86625 5.4740625 10.86625 5.4740625 11.75 4.9375 C14 4 14 4 16.0625 4.0625 C18.96024859 5.46463641 19.79614729 7.05724892 21 10 C20.1875 12.8125 20.1875 12.8125 19 15 C21.475 15.99 21.475 15.99 24 17 C24 19.64 24 22.28 24 25 C22.35 25.66 20.7 26.32 19 27 C19.66 28.98 20.32 30.96 21 33 C19.35 34.65 17.7 36.3 16 38 C11.25 36.125 11.25 36.125 9 35 C8.855625 35.969375 8.71125 36.93875 8.5625 37.9375 C8 41 8 41 7 42 C4.66702567 42.04092937 2.33294775 42.04241723 0 42 C-1.4606285 39.35261084 -2 38.10551666 -2 35 C-2.7425 35.53625 -3.485 36.0725 -4.25 36.625 C-7 38 -7 38 -9.1875 37.3125 C-11 36 -11 36 -13 34 C-12.63723355 31.17042171 -11.90305236 28.70915709 -11 26 C-12.98 25.67 -14.96 25.34 -17 25 C-17.09765625 18.84765625 -17.09765625 18.84765625 -17 17 C-16 16 -16 16 -13.4375 15.9375 C-12.633125 15.958125 -11.82875 15.97875 -11 16 C-11.5259375 14.9171875 -11.5259375 14.9171875 -12.0625 13.8125 C-13.12108083 10.6367575 -13.10140686 9.13477337 -12 6 C-8.1496895 3.43312633 -6.41430237 4.16711276 -2 5 C-1.34 3.35 -0.68 1.7 0 0 Z M3 15 C0.333492 17.16588845 0.333492 17.16588845 -2 20 C-2.104597 22.73295895 -2.104597 22.73295895 -1 25 C1.78863007 26.39431504 3.92078868 26.25660094 7 26 C9.24621573 23.25394157 9.24621573 23.25394157 8.9375 20.5 C7.70665597 17.21774924 6.08264 16.50179898 3 15 Z " fill="#BDC1C5" transform="translate(56,1)"/>
<path d="M0 0 C1.2065625 0.433125 1.2065625 0.433125 2.4375 0.875 C2.4375 1.865 2.4375 2.855 2.4375 3.875 C0.390625 5.734375 0.390625 5.734375 -2.3125 7.625 C-3.19421875 8.25921875 -4.0759375 8.8934375 -4.984375 9.546875 C-7.5625 10.875 -7.5625 10.875 -9.890625 10.578125 C-10.71820313 10.23007812 -10.71820313 10.23007812 -11.5625 9.875 C-11.8925 8.555 -12.2225 7.235 -12.5625 5.875 C-4.68503829 -0.16438731 -4.68503829 -0.16438731 0 0 Z " fill="#BBC0C4" transform="translate(84.5625,43.125)"/>
<path d="M0 0 C-1.625 5.75 -1.625 5.75 -5 8 C-7.125 7.75 -7.125 7.75 -9 7 C-9.33 6.34 -9.66 5.68 -10 5 C-10.33 6.98 -10.66 8.96 -11 11 C-11.86625 10.2265625 -11.86625 10.2265625 -12.75 9.4375 C-14.87827523 7.73494807 -14.87827523 7.73494807 -17.25 8.3125 C-18.11625 8.6528125 -18.11625 8.6528125 -19 9 C-16.23997886 6.07425011 -13.47906555 3.80903454 -10.0625 1.6875 C-9.22847656 1.15511719 -8.39445312 0.62273438 -7.53515625 0.07421875 C-4.53652691 -1.1963869 -3.065923 -0.93787627 0 0 Z " fill="#B9BCC1" transform="translate(95,47)"/>
<path d="M0 0 C0.33 1.32 0.66 2.64 1 4 C-4.39068413 7.59378942 -7.53673535 8.45356243 -14 8 C-14 7.01 -14 6.02 -14 5 C-12.61217515 4.1533966 -11.21430603 3.32324661 -9.8125 2.5 C-9.03519531 2.0359375 -8.25789063 1.571875 -7.45703125 1.09375 C-4.75896614 -0.10729647 -2.9193018 -0.20741043 0 0 Z " fill="#B5BBBF" transform="translate(77,41)"/>
<path d="M0 0 C0.33 0.66 0.66 1.32 1 2 C1.61875 1.79375 2.2375 1.5875 2.875 1.375 C3.926875 1.189375 3.926875 1.189375 5 1 C5.66 1.66 6.32 2.32 7 3 C4.97307871 5.02692129 0.96251392 4.18507217 -1.8125 4.1875 C-2.90014648 4.20586914 -2.90014648 4.20586914 -4.00976562 4.22460938 C-7.82993278 4.23509474 -10.76435611 4.14860342 -14 2 C-10.6888987 0.89629957 -8.75251051 1.07326359 -5.3125 1.4375 C-4.31863281 1.53933594 -3.32476562 1.64117187 -2.30078125 1.74609375 C-1.54152344 1.82988281 -0.78226563 1.91367187 0 2 C0 1.34 0 0.68 0 0 Z " fill="#B1B8BD" transform="translate(64,56)"/>
<path d="M0 0 C0 0.99 0 1.98 0 3 C-3.12155879 4.00335818 -4.87400172 3.80670923 -8 3 C-8.99 3.33 -9.98 3.66 -11 4 C-11 3.34 -11 2.68 -11 2 C-7.09100481 -1.10420207 -4.76837457 -1.21981675 0 0 Z " fill="#B0B7C4" transform="translate(87,44)"/>
<path d="M0 0 C2.6875 0.875 2.6875 0.875 5 2 C3.02 2.99 3.02 2.99 1 4 C0.67 3.67 0.34 3.34 0 3 C-0.33 3.99 -0.66 4.98 -1 6 C-2.98 6 -4.96 6 -7 6 C-4.74259377 3.66475218 -2.7194239 1.81294927 0 0 Z " fill="#C0C8CC" transform="translate(69,42)"/>
<path d="M0 0 C1.2065625 0.0309375 1.2065625 0.0309375 2.4375 0.0625 C2.7675 1.3825 3.0975 2.7025 3.4375 4.0625 C2.1175 4.3925 0.7975 4.7225 -0.5625 5.0625 C-1.5525 3.7425 -2.5425 2.4225 -3.5625 1.0625 C-2.5625 0.0625 -2.5625 0.0625 0 0 Z " fill="#AAB4C2" transform="translate(74.5625,40.9375)"/>
<path d="M0 0 C0.33 0.99 0.66 1.98 1 3 C-1.3125 6.1875 -1.3125 6.1875 -4 9 C-4.66 9 -5.32 9 -6 9 C-4.25 5.125 -4.25 5.125 -2 4 C-2.33 3.34 -2.66 2.68 -3 2 C-2.01 1.34 -1.02 0.68 0 0 Z " fill="#C8CED3" transform="translate(95,48)"/>
</svg>
