<?xml version="1.0" encoding="UTF-8"?>
<svg version="1.1" xmlns="http://www.w3.org/2000/svg" width="116" height="87">
<path d="M0 0 C2.68694316 0.98553937 4.28624331 2.4186397 6.390625 4.34765625 C7.09703125 4.98832031 7.8034375 5.62898438 8.53125 6.2890625 C9.06234375 6.78277344 9.5934375 7.27648438 10.140625 7.78515625 C10.75164063 7.46546875 11.36265625 7.14578125 11.9921875 6.81640625 C14.38280022 5.66891215 16.53957496 5.28059435 19.140625 4.78515625 C23.57880552 3.54097744 23.57880552 3.54097744 27.140625 0.78515625 C29.93836725 0.70522076 31.60161729 1.35163453 33.77734375 3.1015625 C35.65987046 4.92486365 37.4042266 6.82211216 39.140625 8.78515625 C40.16736328 9.90083984 40.16736328 9.90083984 41.21484375 11.0390625 C41.87097656 11.80089844 42.52710938 12.56273437 43.203125 13.34765625 C43.81285156 14.05019531 44.42257813 14.75273438 45.05078125 15.4765625 C46.140625 17.78515625 46.140625 17.78515625 45.59375 20.77734375 C44.0326394 24.00867483 42.43415739 25.89929977 39.828125 28.34765625 C37.23809127 30.78897991 34.79128348 33.17784389 32.515625 35.91015625 C30.140625 37.78515625 30.140625 37.78515625 27.10546875 37.6171875 C22.32404004 36.77750982 17.85569654 35.0563708 13.328125 33.34765625 C12.47025391 33.03505859 11.61238281 32.72246094 10.72851562 32.40039062 C4.40113957 30.04567082 4.40113957 30.04567082 2.140625 27.78515625 C2.265625 25.78515625 2.265625 25.78515625 3.140625 23.78515625 C4.953125 22.47265625 4.953125 22.47265625 7.140625 21.78515625 C9.27734375 22.2421875 9.27734375 22.2421875 11.140625 22.78515625 C6.63937735 17.47339456 1.94526834 12.62091267 -3.234375 7.9609375 C-4.859375 5.78515625 -4.859375 5.78515625 -4.734375 3.078125 C-3.67241641 0.29522459 -2.99471956 -0.34602852 0 0 Z " fill="#BFC1C6" transform="translate(43.859375,33.21484375)"/>
<path d="M0 0 C5.33790984 3.84826058 8.67018187 7.53608678 10.1875 14.0625 C10.78422067 17.90023293 10.74769808 20.50383653 8.6875 23.9375 C7.594375 23.89625 6.50125 23.855 5.375 23.8125 C1.59857771 23.61675334 1.59857771 23.61675334 -1.3125 25.9375 C-1.85569235 28.10002055 -1.85569235 28.10002055 -1.9375 30.5 C-2.23016724 34.85516724 -2.23016724 34.85516724 -3.3125 35.9375 C-9.21630344 36.77035799 -14.12233615 36.58298936 -19.25 33.375 C-23.92431069 29.78130952 -26.76508908 26.45821656 -27.68359375 20.55078125 C-27.98675099 14.55194246 -26.86030018 9.81979382 -23.3125 4.9375 C-16.912204 -1.78030416 -8.68806334 -2.7867373 0 0 Z M-2.3125 9.9375 C-2.84359375 10.52660156 -3.3746875 11.11570312 -3.921875 11.72265625 C-4.62828125 12.47417969 -5.3346875 13.22570312 -6.0625 14 C-6.75859375 14.75410156 -7.4546875 15.50820313 -8.171875 16.28515625 C-10.3125 17.9375 -10.3125 17.9375 -12.328125 17.68359375 C-12.98296875 17.43738281 -13.6378125 17.19117188 -14.3125 16.9375 C-15.6325 16.9375 -16.9525 16.9375 -18.3125 16.9375 C-16.86996343 20.30341866 -14.97985273 22.44797079 -12.3125 24.9375 C-10.31266466 24.14632096 -10.31266466 24.14632096 -8.3125 22.9375 C-7.9825 21.9475 -7.6525 20.9575 -7.3125 19.9375 C-5.25 18.75 -5.25 18.75 -3.3125 17.9375 C-3.3125 17.2775 -3.3125 16.6175 -3.3125 15.9375 C-2.3225 15.6075 -1.3325 15.2775 -0.3125 14.9375 C0.42073796 12.92241642 0.42073796 12.92241642 0.6875 10.9375 C-0.3025 10.6075 -1.2925 10.2775 -2.3125 9.9375 Z " fill="#BEC2C6" transform="translate(39.3125,7.0625)"/>
<path d="M0 0 C3.15473719 0.35052635 4.8233534 0.86519076 7.375 2.8125 C9 5 9 5 8.78808594 6.92089844 C7.31676468 10.80248822 4.14551935 13.3662034 1.25 16.25 C0.62867187 16.8996875 0.00734375 17.549375 -0.6328125 18.21875 C-5.25309205 22.8585244 -5.25309205 22.8585244 -8.8046875 23.53125 C-11.88853604 22.7849806 -13.15807102 21.55036321 -15 19 C-14.63240245 15.70569674 -13.4467758 14.09151332 -11.09375 11.8359375 C-10.22556641 10.98902344 -10.22556641 10.98902344 -9.33984375 10.125 C-8.73269531 9.5475 -8.12554687 8.97 -7.5 8.375 C-6.29999559 7.21830785 -5.10198026 6.05954751 -3.90625 4.8984375 C-3.10670898 4.13539307 -3.10670898 4.13539307 -2.29101562 3.35693359 C-0.882719 2.0092052 -0.882719 2.0092052 0 0 Z " fill="#BDC2C6" transform="translate(89,55)"/>
<path d="M0 0 C0.66 0.33 1.32 0.66 2 1 C1.278125 1.70125 0.55625 2.4025 -0.1875 3.125 C-2.99823813 5.92770745 -5.49516226 8.92262792 -8 12 C-8.33 11.34 -8.66 10.68 -9 10 C-8.06862408 8.70391053 -7.1296434 7.41328368 -6.1875 6.125 C-5.66542969 5.40570312 -5.14335937 4.68640625 -4.60546875 3.9453125 C-3 2 -3 2 0 0 Z " fill="#C0CAD0" transform="translate(22,7)"/>
<path d="M0 0 C0.99 0.495 0.99 0.495 2 1 C2 1.66 2 2.32 2 3 C2.639375 3.103125 3.27875 3.20625 3.9375 3.3125 C4.618125 3.539375 5.29875 3.76625 6 4 C6.33 4.99 6.66 5.98 7 7 C4 7 4 7 1.8125 5.1875 C0 3 0 3 0 0 Z " fill="#C5C9D1" transform="translate(39,36)"/>
</svg>
