<?xml version="1.0" encoding="UTF-8"?>
<svg version="1.1" xmlns="http://www.w3.org/2000/svg" width="134" height="82">
<path d="M0 0 C6.875 0.875 6.875 0.875 8 2 C9.27875 1.79375 10.5575 1.5875 11.875 1.375 C15.75965387 1.26240134 16.94300616 1.95420007 20.04296875 4.4453125 C22.83568861 7.17352295 25.44069036 10.05320609 28 13 C26.69555432 15.85114555 25.29447569 18.04747746 23.125 20.3125 C22.63257813 20.84488281 22.14015625 21.37726562 21.6328125 21.92578125 C20 23 20 23 17.8671875 22.73046875 C16 22 16 22 15 21 C12.12693772 20.49904977 12.12693772 20.49904977 9 21 C6.7110076 23.360962 6.7110076 23.360962 5 26 C4.01 26.495 4.01 26.495 3 27 C2.71125 27.639375 2.4225 28.27875 2.125 28.9375 C0.75371947 31.4515143 -0.4839253 31.7825445 -3 33 C-3.33 33.99 -3.66 34.98 -4 36 C-6.0625 37.1875 -6.0625 37.1875 -8 38 C-8.34900558 41.71736641 -8.34900558 41.71736641 -6.5 44.8125 C-6.005 45.204375 -5.51 45.59625 -5 46 C-5.33 46.99 -5.66 47.98 -6 49 C-7.65 49 -9.3 49 -11 49 C-11 47.02 -11 45.04 -11 43 C-11.61875 43.185625 -12.2375 43.37125 -12.875 43.5625 C-15 44 -15 44 -17 43 C-16.505 40.03 -16.505 40.03 -16 37 C-18.475 37.495 -18.475 37.495 -21 38 C-21.66 36.02 -22.32 34.04 -23 32 C-24.32 32 -25.64 32 -27 32 C-27.68798828 30.23168945 -27.68798828 30.23168945 -28 28 C-26.08434904 25.01197948 -23.40506849 22.66408359 -20.875 20.1875 C-20.19695313 19.48173828 -19.51890625 18.77597656 -18.8203125 18.04882812 C-18.15515625 17.38689453 -17.49 16.72496094 -16.8046875 16.04296875 C-15.89178955 15.13067505 -15.89178955 15.13067505 -14.96044922 14.19995117 C-13 13 -13 13 -10.36157227 13.22167969 C-7.71548367 14.09377009 -6.8002548 14.93186151 -5.0625 17.0625 C-2.84396162 19.41756382 -2.22962562 19.94845139 1.0625 20.6875 C4.79195985 20.08697825 4.79195985 20.08697825 9 15 C5.37 11.37 1.74 7.74 -2 4 C-1.34 2.68 -0.68 1.36 0 0 Z " fill="#BDC0C5" transform="translate(74,17)"/>
<path d="M0 0 C4.2819914 1.62233195 6.97649811 4.6362059 10.1484375 7.86328125 C10.80199219 8.49298828 11.45554688 9.12269531 12.12890625 9.77148438 C12.74121094 10.38572266 13.35351562 10.99996094 13.984375 11.6328125 C14.54431152 12.19202393 15.10424805 12.75123535 15.68115234 13.32739258 C16.7734375 15.05078125 16.7734375 15.05078125 16.57275391 17.1394043 C15.7734375 19.05078125 15.7734375 19.05078125 13.7734375 21.05078125 C11.39453125 21.3984375 11.39453125 21.3984375 8.7734375 21.05078125 C6.59250022 19.36570254 4.82912744 17.48110762 2.93359375 15.484375 C0.79381161 13.77811007 0.79381161 13.77811007 -2.19140625 14.046875 C-5.85342691 15.2581225 -7.32638029 16.79368282 -9.8515625 19.67578125 C-12.078125 22.21484375 -12.078125 22.21484375 -14.2265625 24.05078125 C-17.7227893 24.01722821 -19.6254864 22.11120765 -22.0390625 19.73828125 C-22.66425781 19.14402344 -23.28945313 18.54976562 -23.93359375 17.9375 C-25.2265625 16.05078125 -25.2265625 16.05078125 -25.13671875 14.04296875 C-24.04683499 11.65738626 -22.75721848 10.2853872 -20.8515625 8.48828125 C-20.24570312 7.90949219 -19.63984375 7.33070312 -19.015625 6.734375 C-18.13003906 5.90099609 -18.13003906 5.90099609 -17.2265625 5.05078125 C-16.74960937 4.48617188 -16.27265625 3.9215625 -15.78125 3.33984375 C-13.67282187 1.59164958 -12.41806005 1.80436225 -9.7265625 1.98828125 C-5.6477101 2.25340666 -3.76922902 0.08596487 0 0 Z " fill="#BDC1C5" transform="translate(64.2265625,15.94921875)"/>
<path d="M0 0 C4.31339563 1.59007649 7.26711904 5.40240349 10.45629883 8.6027832 C11.20975586 9.32788086 11.96321289 10.05297852 12.73950195 10.80004883 C13.44655273 11.50452148 14.15360352 12.20899414 14.88208008 12.93481445 C15.53217041 13.57781494 16.18226074 14.22081543 16.85205078 14.88330078 C18.14379883 16.7902832 18.14379883 16.7902832 18.03515625 18.90625 C17.14379883 20.7902832 17.14379883 20.7902832 14.14379883 22.7902832 C10.84614683 22.90976335 8.85175045 22.35097357 6.25415039 20.29370117 C4.19010794 18.32903854 2.22128519 16.30324593 0.26879883 14.2277832 C-0.41956055 13.51686523 -1.10791992 12.80594727 -1.81713867 12.07348633 C-3.5087003 10.32318992 -5.18747175 8.56231492 -6.85620117 6.7902832 C-3.38141214 -0.38203775 -3.38141214 -0.38203775 0 0 Z " fill="#BDC0C4" transform="translate(95.856201171875,9.209716796875)"/>
<path d="M0 0 C3.7726764 0.53895377 5.68212991 1.99535358 8 5 C7.6408127 8.2608173 6.53837698 9.79938339 4.12890625 11.9453125 C3.55462891 12.46480469 2.98035156 12.98429687 2.38867188 13.51953125 C1.78603516 14.04933594 1.18339844 14.57914063 0.5625 15.125 C-0.62380104 16.18998931 -1.81000311 17.25508888 -2.99609375 18.3203125 C-3.52388428 18.78711426 -4.0516748 19.25391602 -4.59545898 19.73486328 C-5.76378148 20.78722677 -6.88814426 21.88814426 -8 23 C-11.5 22.875 -11.5 22.875 -15 22 C-16.21875 19.9453125 -16.21875 19.9453125 -17 18 C-16.52054932 17.52578613 -16.04109863 17.05157227 -15.54711914 16.56298828 C-13.38298162 14.41959665 -11.22270353 12.2723561 -9.0625 10.125 C-8.30775391 9.37863281 -7.55300781 8.63226563 -6.77539062 7.86328125 C-6.05673828 7.14785156 -5.33808594 6.43242187 -4.59765625 5.6953125 C-3.93258057 5.03547363 -3.26750488 4.37563477 -2.58227539 3.69580078 C-0.9186289 2.07326068 -0.9186289 2.07326068 0 0 Z " fill="#BDC0C5" transform="translate(43,8)"/>
<path d="M0 0 C4.3998407 0.56529003 6.67024459 3.07128963 9.6484375 6.14453125 C11 8 11 8 10.9375 10.9375 C10.628125 11.618125 10.31875 12.29875 10 13 C5.04754787 12.84992569 2.63034686 10.13930942 -0.7421875 6.88671875 C-2 5 -2 5 -1.7578125 2.83203125 C-1 1 -1 1 0 0 Z " fill="#B3BAC0" transform="translate(79,43)"/>
<path d="M0 0 C4.69928977 1.38214405 8.23609618 3.96272621 11 8 C10.875 10.875 10.875 10.875 10 13 C5.04754787 12.84992569 2.63034686 10.13930942 -0.7421875 6.88671875 C-2 5 -2 5 -1.7578125 2.83203125 C-1 1 -1 1 0 0 Z " fill="#B4BCC1" transform="translate(68,54)"/>
<path d="M0 0 C4.56167877 0.26833405 6.82493192 2.17492791 9.83984375 5.3671875 C11 7 11 7 11.375 9.875 C11.25125 10.57625 11.1275 11.2775 11 12 C9.26953125 12.7265625 9.26953125 12.7265625 7 13 C4.82421875 11.5234375 4.82421875 11.5234375 2.6875 9.375 C1.96949219 8.68148437 1.25148438 7.98796875 0.51171875 7.2734375 C-1 5 -1 5 -0.73046875 2.2265625 C-0.48941406 1.49179687 -0.24835938 0.75703125 0 0 Z " fill="#B1B8BD" transform="translate(73,49)"/>
<path d="M0 0 C4.56167877 0.26833405 6.82493192 2.17492791 9.83984375 5.3671875 C11 7 11 7 11.375 9.875 C11.25125 10.57625 11.1275 11.2775 11 12 C9.26953125 12.7265625 9.26953125 12.7265625 7 13 C4.82421875 11.5234375 4.82421875 11.5234375 2.6875 9.375 C1.96949219 8.68148437 1.25148438 7.98796875 0.51171875 7.2734375 C-1 5 -1 5 -0.73046875 2.2265625 C-0.48941406 1.49179687 -0.24835938 0.75703125 0 0 Z " fill="#B6BCC2" transform="translate(84,38)"/>
<path d="M0 0 C0.66 0.33 1.32 0.66 2 1 C0.515 3.475 0.515 3.475 -1 6 C-0.34 6.33 0.32 6.66 1 7 C1.33 6.34 1.66 5.68 2 5 C2.33 5.99 2.66 6.98 3 8 C3.66 8.33 4.32 8.66 5 9 C3.02 10.65 1.04 12.3 -1 14 C-0.67 12.35 -0.34 10.7 0 9 C-2.78938212 8.58109782 -2.78938212 8.58109782 -6 9 C-8.72926391 11.31256494 -8.72926391 11.31256494 -11 14 C-11.99 14.66 -12.98 15.32 -14 16 C-12.34136495 11.67495164 -9.128959 8.90581175 -5.875 5.75 C-5.31167969 5.19570313 -4.74835937 4.64140625 -4.16796875 4.0703125 C-2.78313972 2.70895515 -1.39216796 1.35385141 0 0 Z " fill="#C3C8CE" transform="translate(40,12)"/>
<path d="M0 0 C3.21524305 1.40844718 5.32183868 3.10344786 7.75 5.625 C8.67039062 6.57246094 8.67039062 6.57246094 9.609375 7.5390625 C10.29773438 8.26222656 10.29773438 8.26222656 11 9 C9.69555432 11.85114555 8.29447569 14.04747746 6.125 16.3125 C5.63257812 16.84488281 5.14015625 17.37726562 4.6328125 17.92578125 C3 19 3 19 0.9140625 18.765625 C-1.29069228 17.88372309 -2.45342398 16.77856242 -4 15 C-3.01 14.67 -2.02 14.34 -1 14 C-0.01 14.99 0.98 15.98 2 17 C3.98 14.69 5.96 12.38 8 10 C7.50628906 9.44570313 7.01257813 8.89140625 6.50390625 8.3203125 C5.86324219 7.59585937 5.22257812 6.87140625 4.5625 6.125 C3.92441406 5.40570312 3.28632812 4.68640625 2.62890625 3.9453125 C1 2 1 2 0 0 Z " fill="#AEB3BB" transform="translate(91,21)"/>
<path d="M0 0 C2.11984182 1.02572992 3.39936836 2.16864862 4.9375 3.9375 C4.6075 4.5975 4.2775 5.2575 3.9375 5.9375 C2.6175 4.6175 1.2975 3.2975 -0.0625 1.9375 C-0.495625 2.741875 -0.92875 3.54625 -1.375 4.375 C-3.0625 6.9375 -3.0625 6.9375 -6.0625 7.9375 C-6.0625 3.9375 -6.0625 3.9375 -4.3125 1.625 C-2.0625 -0.0625 -2.0625 -0.0625 0 0 Z " fill="#BEC5CC" transform="translate(96.0625,9.0625)"/>
<path d="M0 0 C2.02209715 1.91567098 3.7302913 3.89460684 5.5 6.0625 C7.85455699 9.101019 7.85455699 9.101019 11 11 C7 11 7 11 5.078125 9.609375 C4.47484375 8.99578125 3.8715625 8.3821875 3.25 7.75 C2.63640625 7.14671875 2.0228125 6.5434375 1.390625 5.921875 C0 4 0 4 0 0 Z " fill="#AAB1B5" transform="translate(83,39)"/>
<path d="M0 0 C0.66 0.33 1.32 0.66 2 1 C1.67 1.804375 1.34 2.60875 1 3.4375 C-0.06059041 5.69681125 -0.06059041 5.69681125 0 7 C0 7.66 0 8.32 0 9 C-1.32 8.34 -2.64 7.68 -4 7 C-3.43628586 3.73045798 -2.50037734 2.17424117 0 0 Z " fill="#C1C7CE" transform="translate(50,41)"/>
<path d="M0 0 C1.98 0.66 3.96 1.32 6 2 C5.67 2.99 5.34 3.98 5 5 C3.35 5 1.7 5 0 5 C0 3.35 0 1.7 0 0 Z " fill="#BEC6CC" transform="translate(63,61)"/>
<path d="M0 0 C1.32 0.33 2.64 0.66 4 1 C4.33 2.32 4.66 3.64 5 5 C4.01 5 3.02 5 2 5 C1.34 4.34 0.68 3.68 0 3 C0 2.01 0 1.02 0 0 Z " fill="#BEC4CA" transform="translate(73,50)"/>
<path d="M0 0 C0.8125 1.6875 0.8125 1.6875 1 4 C-1.4375 6.75 -1.4375 6.75 -4 9 C-4.25 6.75 -4.25 6.75 -4 4 C-2 1.6875 -2 1.6875 0 0 Z " fill="#A6AFB4" transform="translate(84,32)"/>
<path d="M0 0 C1.32 0.99 2.64 1.98 4 3 C3.67 3.66 3.34 4.32 3 5 C2.01 5 1.02 5 0 5 C-0.66 4.01 -1.32 3.02 -2 2 C-1.34 1.34 -0.68 0.68 0 0 Z " fill="#C2C5CC" transform="translate(69,55)"/>
<path d="M0 0 C1.32 0.66 2.64 1.32 4 2 C3.67 3.32 3.34 4.64 3 6 C2.34 6 1.68 6 1 6 C0.34 4.35 -0.32 2.7 -1 1 C-0.67 0.67 -0.34 0.34 0 0 Z " fill="#B4BBC1" transform="translate(77,29)"/>
</svg>
